<svg xmlns="http://www.w3.org/2000/svg" xmlns:xlink="http://www.w3.org/1999/xlink" version="1.1" id="Layer_1" x="0px" y="0px" width="100%" viewBox="0 0 1053 208" enable-background="new 0 0 1053 208" xml:space="preserve">
<path fill="#02010100" opacity="1.000000" stroke="none" d=" M871.000000,209.000000   C581.000000,209.000000 291.000000,209.000000 1.000000,209.000000   C1.000000,206.970444 1.000000,204.971527 1.358112,202.555634   C3.144166,202.426895 4.572108,202.715134 6.327038,203.205643   C10.382268,203.937698 14.103205,204.853348 17.840136,204.924118   C28.552408,205.126938 39.271160,204.987396 50.456802,204.986450   C74.534958,204.992172 98.145485,204.838654 121.751015,205.114182   C127.076363,205.176346 131.025452,203.328583 134.618881,199.869110   C143.569519,191.252167 152.348633,182.446442 161.535385,174.088928   C168.074249,168.140320 175.163803,162.797058 182.453400,157.131012   C185.998627,157.078384 189.098038,157.078384 193.624847,157.078384   C187.917480,151.711746 183.514557,147.571671 179.418610,143.207275   C181.133759,141.659973 182.541931,140.337006 184.244812,139.169540   C187.015121,141.236069 189.490707,143.147110 192.159790,145.339783   C198.242310,148.332062 204.131348,151.042694 210.373749,153.912628   C216.491425,155.255600 222.255722,156.439270 228.459885,157.744263   C234.602692,157.983627 240.305618,158.101669 246.406494,158.325562   C252.203415,157.946747 257.602386,157.462067 263.416626,157.019287   C275.444702,155.463211 286.504211,152.357880 296.418213,145.127136   C310.838531,134.552689 319.380646,121.122536 319.449463,102.930664   C320.880798,102.567719 321.979675,102.280441 323.176941,102.453705   C323.275360,135.509247 323.275360,168.104233 323.275360,200.931900   C333.730988,200.931900 343.365112,200.931900 353.439697,201.013000   C360.953186,201.188522 360.956940,201.188522 360.958984,194.248093   C360.962524,182.440002 360.960754,170.631912 360.961151,158.823822   C360.961243,155.415115 360.961182,152.006424 360.961182,148.400696   C365.062958,150.088531 368.531738,151.515900 372.298157,153.165802   C379.396790,154.887527 386.197784,156.386703 393.413086,157.988739   C403.549957,158.019775 413.272583,157.947952 423.403748,157.918243   C433.527863,156.393341 442.911102,153.931763 451.282349,147.782959   C460.239990,142.072723 466.043457,134.250351 469.787231,124.727539   C470.400543,123.167503 471.874207,121.945702 473.320374,120.889130   C474.437744,133.206711 477.890228,143.805756 488.920044,150.427673   C497.554169,155.611298 507.009979,157.764374 517.459717,157.970581   C528.321289,157.481644 538.720581,156.906799 549.543945,156.333038   C558.657898,153.935226 567.347778,151.536331 576.416870,149.106033   C578.889221,148.370071 580.982178,147.665527 583.483765,146.823456   C583.702148,150.445969 583.877136,153.347733 584.077576,156.672852   C591.588867,156.672852 598.796387,156.672852 606.464478,156.748413   C611.492676,156.823975 616.060425,156.823975 621.113708,156.823975   C621.113708,145.601685 621.113708,135.302597 621.524780,125.003113   C623.580811,125.003830 625.225647,125.004967 626.937622,125.470169   C627.004639,150.805008 627.004639,175.675781 627.004639,200.926727   C634.135620,200.926727 640.567993,200.926727 647.463501,201.002014   C651.753418,201.097290 655.598328,200.893509 659.402161,201.199326   C663.324707,201.514664 664.586304,200.121735 664.532471,196.165024   C664.335693,181.691116 664.413574,167.212463 664.531799,152.736740   C664.544739,151.155655 665.488892,149.582169 666.199219,148.282928   C674.267273,151.328583 682.137085,154.096466 690.406250,156.979401   C697.205505,157.692383 703.605530,158.290314 710.463928,158.961609   C715.949097,158.662338 720.975830,158.289688 726.411743,157.961502   C730.886536,157.026764 734.952271,156.047562 739.402100,155.057678   C748.491272,152.281616 756.472656,148.310883 762.915405,141.160965   C766.705505,135.493393 770.223328,129.988632 773.999756,124.750366   C776.478699,126.011292 778.699036,127.005707 780.994751,128.463684   C781.070068,138.148270 781.070068,147.369263 781.070068,156.851746   C785.122253,156.851746 788.558838,156.851746 792.445312,156.921509   C795.926697,157.058701 798.958191,157.126099 801.991333,157.650024   C801.996704,171.098022 802.103455,184.090714 801.948853,197.080292   C801.893616,201.722198 803.843262,203.850372 808.387146,203.981705   C818.855591,204.284332 829.319885,204.760071 839.789856,204.970139   C851.441772,205.203949 863.098022,205.221039 874.549561,205.601303   C873.231201,206.913422 872.115601,207.956711 871.000000,209.000000  z"/>
<path fill="#01010200" opacity="1.000000" stroke="none" d=" M1.000000,7.000000   C1.000000,5.000597 1.000000,3.001194 1.000000,1.001343   C351.894653,1.000895 702.789307,1.000895 1053.842041,1.000895   C1053.842041,70.333099 1053.842041,139.666489 1053.842041,209.000000   C998.561340,209.000000 943.244568,209.000000 887.323975,208.688461   C887.442078,207.264664 888.163818,206.152405 889.361450,205.034058   C917.922546,204.683807 946.007874,204.348816 974.092896,203.988159   C980.156616,203.910278 980.974915,203.081329 980.989929,196.999252   C981.021118,184.357712 981.002563,171.716049 981.386841,158.922699   C984.181458,158.427643 986.593628,158.084320 989.395752,157.774521   C992.522095,157.189362 995.258606,156.570694 998.390991,155.979492   C1002.536621,154.708466 1006.286316,153.409988 1010.408813,152.070618   C1013.902405,150.505814 1017.023193,148.981918 1020.482483,147.345276   C1024.203735,144.453857 1027.586304,141.675156 1031.274048,138.759109   C1049.249146,115.935951 1049.374268,90.090981 1031.792603,65.865906   C1027.810791,62.586422 1023.965820,59.617348 1019.911621,56.383911   C1016.491882,54.667053 1013.281372,53.214561 1009.834839,51.522743   C1006.438171,50.351025 1003.277527,49.418621 999.786560,48.311443   C996.327942,47.671844 993.199646,47.207024 989.736084,46.538322   C986.267700,46.115887 983.134583,45.897331 979.573730,45.499138   C975.765442,45.235935 972.384949,45.152370 968.560669,44.986462   C965.411316,44.935810 962.705750,44.967499 960.000732,44.539742   C960.270264,37.505878 959.903503,31.628372 954.334045,26.379730   C950.216187,22.499056 948.128845,16.466995 945.120117,11.403395   C944.479187,10.324710 943.952698,8.590349 943.054565,8.349975   C938.121216,7.029679 933.089355,5.140982 928.090210,5.137884   C683.725403,4.986416 439.360535,5.008125 194.527435,5.008672   C166.704254,5.010491 139.349319,5.014261 111.526237,5.014740   C82.697685,5.020193 54.337261,5.028935 25.511795,5.034462   C17.031166,5.687497 9.015583,6.343749 1.000000,7.000000  z"/>
<path fill="#1D191B00" opacity="1.000000" stroke="none" d=" M1.000000,66.000000   C1.000000,56.979103 1.000000,47.958210 1.358348,38.500629   C3.245525,38.975861 4.790004,39.862667 6.300430,40.804108   C12.282674,44.532822 18.254259,48.278637 24.346348,52.409428   C24.531391,76.553909 24.616665,100.307045 24.647182,124.060265   C24.651007,127.035797 24.365736,130.011703 23.881973,133.099213   C22.934868,133.736588 22.185482,134.165176 21.726278,134.802765   C16.930590,141.461502 12.323564,148.262543 7.338027,154.774384   C5.716523,156.892303 3.139815,158.278915 1.000002,160.000000   C1.000000,154.645065 1.000000,149.290146 1.331964,143.381027   C4.072755,139.947281 7.302207,137.428818 8.754417,134.128342   C16.893549,115.630432 19.749563,96.796547 10.291689,77.775475   C8.038592,73.244186 6.509585,68.015388 1.000000,66.000000  z"/>
<path fill="#11111200" opacity="1.000000" stroke="none" d=" M6.000048,203.003387   C4.572108,202.715134 3.144166,202.426895 1.358112,202.069321   C1.000000,195.978851 1.000000,189.957703 1.336376,183.382324   C3.479128,181.693436 5.451145,180.754761 7.064257,179.391418   C15.760852,172.041351 24.368387,164.585892 33.440605,157.110779   C35.913322,156.981598 37.952072,156.908432 40.453823,156.897446   C45.604259,156.918991 50.291702,156.878342 55.395576,156.897583   C57.211014,157.032532 58.610016,157.107574 59.874046,157.479202   C52.274975,164.568314 45.032475,171.626724 37.287220,178.081909   C28.785666,185.167358 19.804144,191.675568 11.071584,198.486359   C9.290301,199.875641 7.685957,201.491806 6.000048,203.003387  z"/>
<path fill="#13121300" opacity="1.000000" stroke="none" d=" M24.229795,52.018112   C18.254259,48.278637 12.282674,44.532822 6.300430,40.804108   C4.790004,39.862667 3.245525,38.975861 1.358348,38.031975   C1.000000,27.979105 1.000000,17.958210 1.000000,7.468657   C9.015583,6.343749 17.031166,5.687497 25.518047,5.412384   C25.995346,7.057832 26.001345,8.322143 25.664394,9.894712   C25.094059,12.158968 24.698191,14.112268 24.666859,16.071398   C24.475243,28.052902 24.366293,40.035728 24.229795,52.018112  z"/>
<path fill="#1B1B1D00" opacity="1.000000" stroke="none" d=" M1.000000,66.468658   C6.509585,68.015388 8.038592,73.244186 10.291689,77.775475   C19.749563,96.796547 16.893549,115.630432 8.754417,134.128342   C7.302207,137.428818 4.072755,139.947281 1.331964,142.913422   C1.000000,117.645775 1.000000,92.291542 1.000000,66.468658  z"/>
<path fill="#16161700" opacity="1.000000" stroke="none" d=" M33.006641,157.166794   C24.368387,164.585892 15.760852,172.041351 7.064257,179.391418   C5.451145,180.754761 3.479128,181.693436 1.336376,182.914047   C1.000000,175.645752 1.000000,168.291504 1.000002,160.468628   C3.139815,158.278915 5.716523,156.892303 7.338027,154.774384   C12.323564,148.262543 16.930590,141.461502 21.726278,134.802765   C22.185482,134.165176 22.934868,133.736588 23.968021,133.504608   C24.469324,138.556427 24.597956,143.314346 24.624956,148.072845   C24.673964,156.709900 24.648720,156.710037 33.006641,157.166794  z"/>
<path fill="#9F9FA8" opacity="1.000000" stroke="none" d=" M888.885559,205.040131   C888.163818,206.152405 887.442078,207.264664 886.860107,208.688461   C881.977905,209.000000 876.955811,209.000000 871.466858,209.000000   C872.115601,207.956711 873.231201,206.913422 874.951050,205.481964   C879.998779,205.075897 884.442139,205.058014 888.885559,205.040131  z"/>
<path fill="#07060700" opacity="1.000000" stroke="none" d=" M194.995651,5.010623   C439.360535,5.008125 683.725403,4.986416 928.090210,5.137884   C933.089355,5.140982 938.121216,7.029679 943.054565,8.349975   C943.952698,8.590349 944.479187,10.324710 945.120117,11.403395   C948.128845,16.466995 950.216187,22.499056 954.334045,26.379730   C959.903503,31.628372 960.270264,37.505878 959.683289,44.675564   C958.242004,45.501663 957.118713,45.732494 955.558899,45.893036   C950.749451,46.560856 946.376526,47.298965 941.610474,47.996071   C938.118164,48.877285 935.018921,49.799511 931.553467,50.774185   C928.402161,52.053234 925.617188,53.279835 922.485229,54.606209   C919.438843,56.511051 916.739319,58.316113 913.726440,60.232399   C910.232300,63.786472 907.051636,67.229324 903.598511,70.879547   C902.114563,72.931381 900.902954,74.775833 898.991821,77.685089   C898.991821,67.397797 898.991821,58.472855 898.991821,49.316231   C897.172119,48.904659 895.586548,48.546059 893.622620,48.060104   C889.829773,47.329952 886.415283,46.727154 882.590210,46.034187   C879.120300,45.674671 876.060974,45.405327 872.550293,45.047661   C868.731750,45.039082 865.364563,45.118816 861.579224,45.163513   C857.432739,45.720074 853.704346,46.311672 849.562256,46.876316   C845.097717,47.914593 841.046936,48.979828 836.623901,50.051430   C832.501709,51.806450 828.751587,53.555107 824.685425,55.387623   C822.600525,56.477970 820.831726,57.484455 818.313293,58.917484   C818.313293,55.351616 818.622803,52.531540 818.161743,49.843632   C817.975769,48.759163 816.103699,47.963894 814.546509,46.957275   C810.728210,46.932583 807.362305,46.987637 803.541870,46.961601   C799.391602,46.932030 795.695801,46.983543 791.544800,46.951931   C787.855042,46.868801 784.620422,46.868801 781.130371,46.868801   C781.130371,49.841503 781.135498,51.986965 781.129456,54.132397   C781.060364,78.754974 780.989685,103.377548 780.919312,128.000122   C778.699036,127.005707 776.478699,126.011292 774.045654,124.378937   C774.897217,115.225586 776.928650,106.695908 776.803345,98.198036   C776.605896,84.804749 772.678284,72.365166 762.336548,62.424965   C755.328857,55.506958 747.398560,50.872791 737.782593,48.526695   C732.346375,47.472591 727.192078,46.659805 721.661743,45.676071   C716.193604,45.434536 711.101562,45.363949 705.593018,45.245667   C700.453308,45.837341 695.730164,46.476719 690.611206,47.077103   C685.479431,48.398224 680.743408,49.758343 675.648682,51.139740   C671.608032,52.721436 667.926147,54.281849 664.314697,55.394363   C664.385193,52.399017 664.385193,49.851578 664.385193,47.044392   C658.087219,47.044392 652.544373,47.044392 646.539246,46.961231   C639.848999,46.878071 633.621094,46.878071 626.872742,46.878071   C626.872742,53.099499 626.872742,58.550941 626.505859,63.909180   C620.274719,61.870598 614.408630,59.896626 608.733826,64.821640   C608.067871,64.196770 607.683044,63.714973 607.182251,62.941246   C597.973572,53.364403 586.521057,49.110863 573.594360,47.030777   C561.127991,46.556248 549.065002,46.191631 536.545776,45.766998   C517.418518,46.745567 499.471100,51.030670 481.283905,57.230000   C485.719238,66.291115 489.713837,74.678001 493.999542,82.913368   C494.519867,83.913155 496.727844,84.770660 497.952698,84.554604   C511.021423,82.249359 524.049622,79.714073 537.549133,77.297501   C549.580383,78.103943 561.151489,78.854851 573.016724,79.775368   C577.628845,81.529884 582.176697,82.866089 583.302368,88.950317   C580.425720,88.575035 578.214111,88.286507 575.620605,87.928513   C567.817200,86.726273 560.395691,85.593498 552.516724,84.357346   C541.038330,84.585449 530.017395,84.916924 518.601440,85.248489   C503.220398,87.560898 489.202820,91.863464 478.956787,103.924927   C477.150665,103.055443 475.513672,102.525681 473.752075,101.599976   C473.503265,99.554886 473.407684,97.903000 473.250519,96.256996   C471.667206,79.672394 465.745514,65.496658 450.739380,55.990795   C440.876831,49.638252 430.400116,46.299168 418.612671,45.752720   C405.582214,43.946716 393.176208,45.348289 380.501770,48.509357   C373.851013,50.838287 367.598145,53.106281 361.173737,55.436504   C361.011444,52.818615 360.842560,50.093979 360.653137,47.038151   C357.854675,47.038151 355.427063,47.038151 352.537109,46.955353   C342.674622,46.872555 333.274475,46.872555 323.366302,46.872555   C323.366302,49.364498 323.375946,51.315346 323.364777,53.266068   C323.271545,69.508438 323.174469,85.750793 323.078552,101.993156   C321.979675,102.280441 320.880798,102.567719 319.351135,102.525703   C318.575439,99.891739 318.319305,97.569633 317.871063,95.285225   C315.035767,80.834656 309.449066,67.957115 296.763489,58.796730   C285.964020,50.790146 273.950378,47.104965 260.602295,45.955330   C254.134979,45.581909 248.071396,45.331417 241.562759,44.999046   C236.084091,45.416065 231.050476,45.914963 225.620438,46.389217   C219.821838,47.638973 214.419662,48.913372 208.656219,50.204784   C205.549194,51.223003 202.803391,52.224209 199.965790,52.802841   C199.582657,48.280998 199.325912,44.178913 198.993423,40.082977   C198.040939,28.349339 201.872406,16.068470 194.995651,5.010623  z"/>
<path fill="#06060600" opacity="1.000000" stroke="none" d=" M889.361450,205.034058   C884.442139,205.058014 879.998779,205.075897 875.153870,205.213104   C863.098022,205.221039 851.441772,205.203949 839.789856,204.970139   C829.319885,204.760071 818.855591,204.284332 808.387146,203.981705   C803.843262,203.850372 801.893616,201.722198 801.948853,197.080292   C802.103455,184.090714 801.996704,171.098022 802.323181,157.573364   C803.101440,156.972076 803.549438,156.904022 804.451172,156.905579   C808.269165,156.930603 811.633423,156.886017 815.435852,156.903076   C819.636658,156.858994 818.237915,153.922577 818.250488,152.155258   C818.366821,135.872284 818.672668,119.577530 818.170776,103.309418   C817.954651,96.305595 819.316345,91.030388 826.343018,87.926880   C830.477600,85.967262 834.264343,84.069565 838.440247,82.147690   C842.883484,81.013809 846.937683,79.904106 851.396912,78.791092   C855.216003,78.234291 858.630005,77.680779 862.496521,77.184074   C866.298523,77.162941 869.648071,77.084991 873.395752,77.107895   C876.862610,77.470650 879.931274,77.732552 883.353455,78.151154   C887.115662,78.934669 890.524475,79.561470 894.249756,80.403427   C898.607788,81.347511 897.017639,83.961708 896.547119,86.314392   C893.228577,102.910286 893.555603,118.957771 903.943909,133.764603   C907.370117,137.371277 910.690918,140.669937 914.197388,144.251007   C917.585999,146.362778 920.788940,148.192108 924.235229,150.273712   C926.942505,151.508255 929.406616,152.490540 932.167603,153.659760   C936.313904,154.797333 940.163208,155.747955 944.411377,156.817139   C949.541321,157.507690 954.272461,158.079666 959.452637,158.764099   C963.601013,158.878586 967.300354,158.880615 971.446533,158.955139   C974.600342,158.913788 977.307434,158.799973 980.264099,158.777756   C980.677307,158.937729 980.840881,159.006088 981.004456,159.074448   C981.002563,171.716049 981.021118,184.357712 980.989929,196.999252   C980.974915,203.081329 980.156616,203.910278 974.092896,203.988159   C946.007874,204.348816 917.922546,204.683807 889.361450,205.034058  z"/>
<path fill="#09080900" opacity="1.000000" stroke="none" d=" M194.527435,5.008672   C201.872406,16.068470 198.040939,28.349339 198.993423,40.082977   C199.325912,44.178913 199.582657,48.280998 199.738037,53.037109   C197.385681,55.089928 195.169250,56.485916 192.619476,57.967575   C188.194656,62.044922 184.103165,66.036598 179.734299,70.219971   C171.979721,80.660095 169.733322,92.399025 170.272720,104.709503   C170.726685,115.070053 172.909195,125.043877 179.972076,133.619583   C181.379562,135.613922 182.664825,137.313995 183.950104,139.014053   C182.541931,140.337006 181.133759,141.659973 179.152222,143.054413   C173.094681,138.302322 167.610489,133.478775 161.959930,128.381256   C157.220993,123.996849 152.648422,119.886421 147.898407,115.502304   C143.161774,111.146423 138.602600,107.064240 133.865692,102.698425   C130.518967,99.434280 127.349998,96.453773 123.793587,93.108871   C126.967010,90.846481 129.576065,88.986435 132.472458,86.945175   C136.235046,84.546295 139.710327,82.328621 143.475586,79.933357   C147.210632,77.622017 150.655701,75.488251 154.432098,73.218613   C158.849960,70.422096 162.936493,67.761459 167.359100,65.003662   C176.783173,59.256718 185.871155,53.606918 194.959122,47.957123   C194.847717,47.647511 194.736313,47.337894 194.624908,47.028282   C185.084091,47.028282 175.543274,47.028282 165.546158,46.956581   C161.393951,46.929890 157.698059,46.974903 153.577087,46.951759   C151.436584,46.777008 149.721130,46.670418 147.965454,46.232956   C147.783646,45.427937 147.741226,44.890892 147.486130,44.488766   C139.272263,31.540569 128.424515,20.968266 117.146179,10.768523   C115.247932,9.051807 113.702713,6.944738 111.994370,5.018030   C139.349319,5.014261 166.704254,5.010491 194.527435,5.008672  z"/>
<path fill="#E0122A" opacity="1.000000" stroke="none" d=" M323.176941,102.453705   C323.174469,85.750793 323.271545,69.508438 323.364777,53.266068   C323.375946,51.315346 323.366302,49.364498 323.366302,46.872555   C333.274475,46.872555 342.674622,46.872555 352.537323,47.421497   C352.999664,98.957596 352.999451,149.944748 352.999237,200.931900   C343.365112,200.931900 333.730988,200.931900 323.275360,200.931900   C323.275360,168.104233 323.275360,135.509247 323.176941,102.453705  z"/>
<path fill="#07070800" opacity="1.000000" stroke="none" d=" M182.007599,157.183640   C175.163803,162.797058 168.074249,168.140320 161.535385,174.088928   C152.348633,182.446442 143.569519,191.252167 134.618881,199.869110   C131.025452,203.328583 127.076363,205.176346 121.751015,205.114182   C98.145485,204.838654 74.534958,204.992172 50.546051,204.657700   C56.809345,198.642731 63.502884,193.017761 70.082527,187.262573   C76.933708,181.269882 84.199341,175.631516 90.314354,168.950897   C96.229294,162.488846 100.560394,154.599091 106.260857,147.910614   C109.821022,143.733383 114.628906,140.619568 119.177864,137.185699   C123.630585,140.956055 127.782318,144.569260 132.114960,148.452835   C136.942825,153.331665 141.131149,158.885315 149.471924,156.882477   C154.294571,156.895447 158.655258,156.858887 163.480789,156.872757   C169.966293,157.009995 175.986938,157.096817 182.007599,157.183640  z"/>
<path fill="#0D0D0E00" opacity="1.000000" stroke="none" d=" M118.876884,137.028549   C114.628906,140.619568 109.821022,143.733383 106.260857,147.910614   C100.560394,154.599091 96.229294,162.488846 90.314354,168.950897   C84.199341,175.631516 76.933708,181.269882 70.082527,187.262573   C63.502884,193.017761 56.809345,198.642731 50.076614,204.653687   C39.271160,204.987396 28.552408,205.126938 17.840136,204.924118   C14.103205,204.853348 10.382268,203.937698 6.327036,203.205643   C7.685957,201.491806 9.290301,199.875641 11.071584,198.486359   C19.804144,191.675568 28.785666,185.167358 37.287220,178.081909   C45.032475,171.626724 52.274975,164.568314 60.233177,157.302734   C61.080437,153.292297 62.055607,149.684982 61.667240,146.230988   C60.607166,136.803024 62.023022,128.927490 72.407455,125.029472   C76.859283,122.363457 80.975296,119.792503 85.437912,117.117935   C88.980034,115.739922 91.735832,112.061127 95.925171,115.472351   C100.344864,119.545517 104.576767,123.340446 108.996201,127.413185   C112.414780,130.803513 115.645836,133.916031 118.876884,137.028549  z"/>
<path fill="#ED0722" opacity="1.000000" stroke="none" d=" M261.005981,46.078259   C273.950378,47.104965 285.964020,50.790146 296.611450,59.179195   C296.443726,61.472462 296.033447,63.112541 296.032623,64.752823   C296.019135,91.575768 296.057404,118.398743 296.084015,145.221710   C286.504211,152.357880 275.444702,155.463211 263.401855,156.594849   C262.643860,146.044113 262.315887,135.959717 262.294434,125.676659   C270.112396,123.465576 276.895325,120.378242 282.083405,112.577095   C274.244049,112.577095 267.638123,112.577095 261.015320,112.193970   C260.686188,103.459251 260.373932,95.107651 260.510742,86.636734   C266.472412,86.517410 271.985016,86.517410 278.526825,86.517410   C274.084351,78.500397 267.282349,77.644417 261.008789,75.406097   C261.006683,65.323296 261.006348,55.700779 261.005981,46.078259  z"/>
<path fill="#A94350" opacity="1.000000" stroke="none" d=" M573.997742,47.140690   C586.521057,49.110863 597.973572,53.364403 607.112793,63.468719   C607.105957,92.302467 607.080383,120.316917 606.957031,148.330948   C606.944763,151.112930 606.335876,153.892273 606.003906,156.672852   C598.796387,156.672852 591.588867,156.672852 584.077576,156.672852   C583.877136,153.347733 583.702148,150.445969 583.483765,146.823456   C580.982178,147.665527 578.889221,148.370071 576.409424,148.628174   C576.010071,139.433121 575.997620,130.684525 576.258911,121.715561   C578.885071,120.056831 581.237549,118.618454 583.590027,117.180069   C581.215332,116.069420 578.841125,114.957825 576.464905,113.850433   C576.318604,113.782227 576.156799,113.747124 576.001709,113.246994   C576.001648,104.530899 576.002014,96.264435 576.002441,87.997978   C578.214111,88.286507 580.425720,88.575035 583.302368,88.950317   C582.176697,82.866089 577.628845,81.529884 573.194824,79.348419   C573.384521,76.808952 573.932251,74.868782 573.954224,72.922653   C574.051392,64.329597 573.997131,55.734837 573.997742,47.140690  z"/>
<path fill="#BB3447" opacity="1.000000" stroke="none" d=" M626.872742,64.002388   C626.872742,58.550941 626.872742,53.099499 626.872742,46.878071   C633.621094,46.878071 639.848999,46.878071 646.538696,47.426918   C647.000427,98.959419 647.000427,149.943069 647.000427,200.926727   C640.567993,200.926727 634.135620,200.926727 627.004639,200.926727   C627.004639,175.675781 627.004639,150.805008 627.009033,125.005753   C626.966553,104.052307 626.919678,84.027351 626.872742,64.002388  z"/>
<path fill="#C52C42" opacity="1.000000" stroke="none" d=" M647.463501,201.002014   C647.000427,149.943069 647.000427,98.959419 647.000977,47.510078   C652.544373,47.044392 658.087219,47.044392 664.385193,47.044392   C664.385193,49.851578 664.385193,52.399017 664.074951,55.750019   C663.533142,57.342033 663.104248,58.129395 663.099915,58.919109   C663.040222,69.699776 662.976990,80.481506 663.107666,91.260643   C663.122864,92.513504 664.291687,93.752388 664.950806,95.421852   C664.114014,103.083946 664.393799,110.149269 668.026978,117.118851   C667.617004,122.629341 667.318298,127.713707 666.997192,132.796661   C666.676880,137.866913 666.334106,142.935730 666.001099,148.005157   C665.488892,149.582169 664.544739,151.155655 664.531799,152.736740   C664.413574,167.212463 664.335693,181.691116 664.532471,196.165024   C664.586304,200.121735 663.324707,201.514664 659.402161,201.199326   C655.598328,200.893509 651.753418,201.097290 647.463501,201.002014  z"/>
<path fill="#CB2639" opacity="1.000000" stroke="none" d=" M419.004028,45.900337   C430.400116,46.299168 440.876831,49.638252 450.740417,56.443619   C450.981720,87.386742 450.970581,117.631599 450.959442,147.876450   C442.911102,153.931763 433.527863,156.393341 423.404968,157.457642   C422.997070,148.225067 423.121735,139.492142 422.906403,130.767609   C422.853668,128.629929 421.688934,126.519722 421.330658,124.174896   C436.822937,118.733276 438.376068,104.239052 434.501770,91.911232   C432.051422,84.114403 425.078552,81.249428 418.088257,78.508728   C418.456116,67.371529 418.730072,56.635933 419.004028,45.900337  z"/>
<path fill="#BD3243" opacity="1.000000" stroke="none" d=" M479.125916,104.264664   C489.202820,91.863464 503.220398,87.560898 518.601196,85.700668   C518.994690,95.055527 518.993469,103.958275 518.699097,113.054642   C514.777527,114.797592 511.566589,116.723808 511.458466,121.294533   C511.364105,125.281517 513.845398,127.186783 517.198853,128.827515   C517.101990,138.853119 517.049683,148.368896 516.997375,157.884674   C507.009979,157.764374 497.554169,155.611298 488.920044,150.427673   C477.890228,143.805756 474.437744,133.206711 473.316101,120.909485   C472.941711,120.608276 472.977264,120.526337 473.379150,120.354500   C475.562653,114.876663 477.344299,109.570663 479.125916,104.264664  z"/>
<path fill="#DD172E" opacity="1.000000" stroke="none" d=" M353.439697,201.013000   C352.999451,149.944748 352.999664,98.957596 352.999664,47.504295   C355.427063,47.038151 357.854675,47.038151 360.653137,47.038151   C360.842560,50.093979 361.011444,52.818615 361.173737,55.436504   C367.598145,53.106281 373.851013,50.838287 380.548340,48.967102   C381.329742,58.947834 381.666656,68.531754 381.683228,78.316269   C369.452026,80.971146 362.199036,86.767944 361.401215,96.262550   C360.339294,108.899582 359.384674,115.956795 372.993774,123.639709   C372.663269,133.712372 372.331909,143.327805 372.000549,152.943253   C368.531738,151.515900 365.062958,150.088531 360.961182,148.400696   C360.961182,152.006424 360.961243,155.415115 360.961151,158.823822   C360.960754,170.631912 360.962524,182.440002 360.958984,194.248093   C360.956940,201.188522 360.953186,201.188522 353.439697,201.013000  z"/>
<path fill="#EF082C" opacity="1.000000" stroke="none" d=" M738.064575,48.768013   C747.398560,50.872791 755.328857,55.506958 762.057129,62.769745   C761.643433,65.000031 761.052002,66.595451 761.047729,68.192451   C760.987549,90.725655 760.969116,113.259254 761.078369,135.792084   C761.087341,137.638458 762.097839,139.479980 762.643005,141.323761   C756.472656,148.310883 748.491272,152.281616 739.398071,154.584595   C739.005310,143.566925 739.132385,133.008621 738.888855,122.458839   C738.837891,120.249641 737.420898,118.071960 736.750916,115.521034   C741.221924,106.236931 740.687927,97.327179 736.823914,87.934135   C737.264648,74.549385 737.664612,61.658699 738.064575,48.768013  z"/>
<path fill="#B7071A" opacity="1.000000" stroke="none" d=" M192.952820,57.881901   C195.169250,56.485916 197.385681,55.089928 199.829865,53.459679   C202.803391,52.224209 205.549194,51.223003 208.654251,50.661011   C209.009628,59.523647 208.837875,67.952301 209.099915,76.367447   C209.182999,79.035553 210.423019,81.667625 211.201797,84.655151   C212.186493,85.565834 213.102997,86.137558 214.014175,87.129715   C214.013931,95.899323 214.018997,104.248482 213.623932,112.684692   C207.490631,112.796326 210.361816,115.774696 211.208252,118.560898   C210.686844,121.115982 210.072937,123.226875 210.050140,125.344139   C209.948151,134.812866 210.014709,144.283417 210.020386,153.753311   C204.131348,151.042694 198.242310,148.332062 192.318573,144.950104   C192.522110,142.474731 192.965820,140.670944 192.967789,138.866669   C192.997070,111.871780 192.968079,84.876831 192.952820,57.881901  z"/>
<path fill="#C52A3D" opacity="1.000000" stroke="none" d=" M472.977264,120.526337   C472.977264,120.526337 472.941711,120.608276 472.945984,120.587921   C471.874207,121.945702 470.400543,123.167503 469.787231,124.727539   C466.043457,134.250351 460.239990,142.072723 451.282349,147.782959   C450.970581,117.631599 450.981720,87.386742 450.991821,56.689064   C465.745514,65.496658 471.667206,79.672394 473.250519,96.256996   C473.407684,97.903000 473.503265,99.554886 473.643799,101.988106   C473.074890,107.706596 472.417206,112.634445 471.967896,117.581215   C471.882233,118.524574 472.619629,119.542702 472.977264,120.526337  z"/>
<path fill="#E90C25" opacity="1.000000" stroke="none" d=" M296.418213,145.127136   C296.057404,118.398743 296.019135,91.575768 296.032623,64.752823   C296.033447,63.112541 296.443726,61.472462 296.815552,59.449821   C309.449066,67.957115 315.035767,80.834656 317.871063,95.285225   C318.319305,97.569633 318.575439,99.891739 319.018677,102.601372   C319.380646,121.122536 310.838531,134.552689 296.418213,145.127136  z"/>
<path fill="#D12348" opacity="1.000000" stroke="none" d=" M803.997498,156.835968   C803.549438,156.904022 803.101440,156.972076 802.321533,157.116821   C798.958191,157.126099 795.926697,157.058701 792.446533,156.462463   C791.998657,119.634102 791.999329,83.334579 792.000000,47.035061   C795.695801,46.983543 799.391602,46.932030 803.542664,47.427429   C803.997803,84.261551 803.997620,120.548759 803.997498,156.835968  z"/>
<path fill="#D41B3F" opacity="1.000000" stroke="none" d=" M791.544800,46.951931   C791.999329,83.334579 791.998657,119.634102 791.996704,156.392685   C788.558838,156.851746 785.122253,156.851746 781.070068,156.851746   C781.070068,147.369263 781.070068,138.148270 780.994690,128.463684   C780.989685,103.377548 781.060364,78.754974 781.129456,54.132397   C781.135498,51.986965 781.130371,49.841503 781.130371,46.868801   C784.620422,46.868801 787.855042,46.868801 791.544800,46.951931  z"/>
<path fill="#AE3E4D" opacity="1.000000" stroke="none" d=" M606.464478,156.748413   C606.335876,153.892273 606.944763,151.112930 606.957031,148.330948   C607.080383,120.316917 607.105957,92.302467 607.228638,63.760658   C607.683044,63.714973 608.067871,64.196770 608.860718,65.137703   C617.145447,74.622879 620.199280,85.495071 620.769714,97.107460   C621.225708,106.389381 621.023682,115.703629 621.113647,125.003525   C621.113708,135.302597 621.113708,145.601685 621.113708,156.823975   C616.060425,156.823975 611.492676,156.823975 606.464478,156.748413  z"/>
<path fill="#AD0819" opacity="1.000000" stroke="none" d=" M192.619476,57.967575   C192.968079,84.876831 192.997070,111.871780 192.967789,138.866669   C192.965820,140.670944 192.522110,142.474731 192.125092,144.668442   C189.490707,143.147110 187.015121,141.236069 184.244812,139.169540   C182.664825,137.313995 181.379562,135.613922 180.081482,133.188965   C180.378693,128.024445 180.995667,123.581253 180.943909,119.145851   C180.752884,102.771927 180.340714,86.400581 180.011673,70.028267   C184.103165,66.036598 188.194656,62.044922 192.619476,57.967575  z"/>
<path fill="#B63848" opacity="1.000000" stroke="none" d=" M517.459717,157.970581   C517.049683,148.368896 517.101990,138.853119 517.653687,128.863495   C528.434387,128.302643 538.715820,128.215652 549.092163,128.527542   C549.164612,138.061600 549.142212,147.196793 549.119812,156.331970   C538.720581,156.906799 528.321289,157.481644 517.459717,157.970581  z"/>
<path fill="#E51034" opacity="1.000000" stroke="none" d=" M762.915405,141.160965   C762.097839,139.479980 761.087341,137.638458 761.078369,135.792084   C760.969116,113.259254 760.987549,90.725655 761.047729,68.192451   C761.052002,66.595451 761.643433,65.000031 762.241272,63.059093   C772.678284,72.365166 776.605896,84.804749 776.803345,98.198036   C776.928650,106.695908 774.897217,115.225586 773.787048,124.112427   C770.223328,129.988632 766.705505,135.493393 762.915405,141.160965  z"/>
<path fill="#D32035" opacity="1.000000" stroke="none" d=" M421.035461,124.396881   C421.688934,126.519722 422.853668,128.629929 422.906403,130.767609   C423.121735,139.492142 422.997070,148.225067 422.996399,157.415512   C413.272583,157.947952 403.549957,158.019775 393.506897,157.588989   C393.457428,147.084335 393.728394,137.082306 394.460693,127.001907   C403.626495,126.081329 412.330963,125.239105 421.035461,124.396881  z"/>
<path fill="#AE3E4D" opacity="1.000000" stroke="none" d=" M549.543945,156.333038   C549.142212,147.196793 549.164612,138.061600 549.492188,128.427338   C558.526611,125.930794 567.255920,123.933350 575.985168,121.935913   C575.997620,130.684525 576.010071,139.433121 576.030090,148.659576   C567.347778,151.536331 558.657898,153.935226 549.543945,156.333038  z"/>
<path fill="#CE233C" opacity="1.000000" stroke="none" d=" M666.199280,148.282928   C666.334106,142.935730 666.676880,137.866913 666.997192,132.796661   C667.318298,127.713707 667.617004,122.629341 668.311035,117.311417   C674.290649,123.720345 682.281128,124.953697 690.085571,127.056732   C690.045837,137.323151 690.026428,147.093750 690.006958,156.864334   C682.137085,154.096466 674.267273,151.328583 666.199280,148.282928  z"/>
<path fill="#D91A31" opacity="1.000000" stroke="none" d=" M393.999390,127.080269   C393.728394,137.082306 393.457428,147.084335 393.092590,157.486115   C386.197784,156.386703 379.396790,154.887527 372.298157,153.165802   C372.331909,143.327805 372.663269,133.712372 373.358185,123.695221   C380.480957,124.555763 387.240173,125.818016 393.999390,127.080269  z"/>
<path fill="#C6071C" opacity="1.000000" stroke="none" d=" M210.373764,153.912628   C210.014709,144.283417 209.948151,134.812866 210.050140,125.344139   C210.072937,123.226875 210.686844,121.115982 211.487732,118.790588   C216.085388,123.679123 222.405106,124.098145 228.004089,126.526360   C228.008636,137.201752 228.014328,147.412354 228.020020,157.622940   C222.255722,156.439270 216.491425,155.255600 210.373764,153.912628  z"/>
<path fill="#DA1A37" opacity="1.000000" stroke="none" d=" M690.406250,156.979401   C690.026428,147.093750 690.045837,137.323151 690.547485,127.028275   C697.019531,126.680031 703.009277,126.856071 708.999390,127.498749   C709.335083,138.273010 709.670288,148.580612 710.005554,158.888229   C703.605530,158.290314 697.205505,157.692383 690.406250,156.979401  z"/>
<path fill="#E11332" opacity="1.000000" stroke="none" d=" M710.463928,158.961609   C709.670288,148.580612 709.335083,138.273010 709.401611,127.392853   C715.202209,125.896240 720.600891,124.972176 725.999084,124.513756   C725.999939,135.958618 726.001282,146.937820 726.002625,157.917038   C720.975830,158.289688 715.949097,158.662338 710.463928,158.961609  z"/>
<path fill="#D3071D" opacity="1.000000" stroke="none" d=" M228.459885,157.744263   C228.014328,147.412354 228.008636,137.201752 228.419922,126.502518   C234.560577,126.378632 240.284256,126.743393 245.991394,127.527275   C245.986084,138.037491 245.997314,148.128601 246.008545,158.219696   C240.305618,158.101669 234.602692,157.983627 228.459885,157.744263  z"/>
<path fill="#E0061F" opacity="1.000000" stroke="none" d=" M246.406494,158.325562   C245.997314,148.128601 245.986084,138.037491 246.440369,127.456238   C251.933212,126.602486 256.960541,126.238892 261.987885,125.875305   C262.315887,135.959717 262.643860,146.044113 262.986603,156.552963   C257.602386,157.462067 252.203415,157.946747 246.406494,158.325562  z"/>
<path fill="#06040400" opacity="1.000000" stroke="none" d=" M621.524780,125.003113   C621.023682,115.703629 621.225708,106.389381 620.769714,97.107460   C620.199280,85.495071 617.145447,74.622879 609.141785,65.280785   C614.408630,59.896626 620.274719,61.870598 626.505859,63.909180   C626.919678,84.027351 626.966553,104.052307 626.942017,124.541687   C625.225647,125.004967 623.580811,125.003830 621.524780,125.003113  z"/>
<path fill="#E80E2F" opacity="1.000000" stroke="none" d=" M726.411743,157.961502   C726.001282,146.937820 725.999939,135.958618 726.296631,124.340805   C729.940918,121.094711 733.287109,118.487221 736.633301,115.879745   C737.420898,118.071960 738.837891,120.249641 738.888855,122.458839   C739.132385,133.008621 739.005310,143.566925 739.013977,154.595276   C734.952271,156.047562 730.886536,157.026764 726.411743,157.961502  z"/>
<path fill="#A10818" opacity="1.000000" stroke="none" d=" M182.453400,157.131012   C175.986938,157.096817 169.966293,157.009995 163.367523,156.516373   C159.712204,147.027115 160.586319,137.849213 162.126297,128.655228   C167.610489,133.478775 173.094681,138.302322 178.845245,143.278748   C183.514557,147.571671 187.917480,151.711746 193.624847,157.078384   C189.098038,157.078384 185.998627,157.078384 182.453400,157.131012  z"/>
<path fill="#0C0B0C00" opacity="1.000000" stroke="none" d=" M111.526237,5.014740   C113.702713,6.944738 115.247932,9.051807 117.146179,10.768523   C128.424515,20.968266 139.272263,31.540569 147.486130,44.488766   C147.741226,44.890892 147.783646,45.427937 147.533539,46.314053   C145.095779,46.828831 143.049683,46.931637 140.559464,46.973068   C136.750702,47.348564 133.386078,47.785435 129.701752,48.326942   C122.882446,52.541214 116.382835,56.650852 109.548981,60.873154   C106.151237,62.687180 103.087746,64.388542 99.935333,65.742348   C94.023232,54.457920 88.608597,43.275791 82.239403,32.666737   C77.667923,25.052101 70.919617,19.383362 61.906868,16.571995   C61.618958,9.592853 61.618958,9.592853 54.534073,9.992201   C49.713810,9.979771 45.354656,10.028169 40.533844,10.008334   C35.383900,9.822218 30.695623,9.704335 26.007345,9.586452   C26.001345,8.322143 25.995346,7.057832 25.983093,5.415600   C54.337261,5.028935 82.697685,5.020193 111.526237,5.014740  z"/>
<path fill="#32A9D2" opacity="1.000000" stroke="none" d=" M1020.143921,147.458038   C1017.023193,148.981918 1013.902405,150.505814 1010.316162,151.655579   C1009.567261,148.836624 1009.060852,146.393799 1009.039185,143.946686   C1008.947205,133.557663 1009.088806,123.165901 1008.918152,112.778854   C1008.886353,110.840866 1007.812073,108.920006 1007.201904,106.542015   C1007.228882,103.398842 1007.273010,100.704903 1007.618347,97.790550   C1008.279785,92.364273 1008.749878,87.163193 1008.976501,81.951530   C1009.414001,71.891525 1009.713867,61.825546 1010.070801,51.762054   C1013.281372,53.214561 1016.491882,54.667053 1019.811890,56.814423   C1019.614502,60.134022 1019.048462,62.758022 1019.041138,65.383591   C1018.972900,89.792992 1018.962158,114.202805 1019.051208,138.612076   C1019.061951,141.562012 1019.762817,144.509445 1020.143921,147.458038  z"/>
<path fill="#2AAFD9" opacity="1.000000" stroke="none" d=" M1020.482483,147.345291   C1019.762817,144.509445 1019.061951,141.562012 1019.051208,138.612076   C1018.962158,114.202805 1018.972900,89.792992 1019.041138,65.383591   C1019.048462,62.758022 1019.614502,60.134022 1020.021179,57.078789   C1023.965820,59.617348 1027.810791,62.586422 1031.590820,66.178444   C1031.017212,69.173576 1030.082397,71.543060 1030.067383,73.918381   C1029.946777,92.960625 1029.963135,112.004128 1030.043213,131.046799   C1030.054199,133.664597 1030.646118,136.279968 1030.968994,138.896454   C1027.586304,141.675156 1024.203735,144.453857 1020.482483,147.345291  z"/>
<path fill="#21B4DE" opacity="1.000000" stroke="none" d=" M1031.274048,138.759109   C1030.646118,136.279968 1030.054199,133.664597 1030.043213,131.046799   C1029.963135,112.004128 1029.946777,92.960625 1030.067383,73.918381   C1030.082397,71.543060 1031.017212,69.173576 1031.727783,66.488861   C1049.374268,90.090981 1049.249146,115.935951 1031.274048,138.759109  z"/>
<path fill="#38A2CB" opacity="1.000000" stroke="none" d=" M1007.218872,106.991257   C1007.812073,108.920006 1008.886353,110.840866 1008.918152,112.778854   C1009.088806,123.165901 1008.947205,133.557663 1009.039185,143.946686   C1009.060852,146.393799 1009.567261,148.836624 1009.943359,151.696457   C1006.286316,153.409988 1002.536621,154.708466 998.301270,155.574615   C997.534119,144.389511 997.252563,133.636749 997.176880,122.622833   C1003.525146,119.070824 1005.816772,113.315666 1007.218872,106.991257  z"/>
<path fill="#5889B1" opacity="1.000000" stroke="none" d=" M955.995361,45.963329   C957.118713,45.732494 958.242004,45.501663 959.682739,45.135010   C962.705750,44.967499 965.411316,44.935810 968.559631,45.450653   C969.002380,56.307339 969.002502,66.617493 968.556396,77.014786   C964.076111,77.334251 960.041931,77.566574 956.007080,77.342834   C956.002808,66.578972 955.999084,56.271149 955.995361,45.963329  z"/>
<path fill="#38A2CB" opacity="1.000000" stroke="none" d=" M1009.834839,51.522736   C1009.713867,61.825546 1009.414001,71.891525 1008.976501,81.951530   C1008.749878,87.163193 1008.279785,92.364273 1007.467041,97.418640   C1006.519043,91.076721 1003.626648,86.189636 999.042297,81.903305   C999.467041,79.552498 999.934814,77.610924 999.960388,75.663536   C1000.079529,66.605309 1000.076294,57.545475 1000.116821,48.486217   C1003.277527,49.418621 1006.438171,50.351025 1009.834839,51.522736  z"/>
<path fill="#4E90B8" opacity="1.000000" stroke="none" d=" M969.002563,76.927650   C969.002502,66.617493 969.002380,56.307339 969.003418,45.532993   C972.384949,45.152370 975.765442,45.235935 979.573730,45.923359   C979.969238,56.783176 979.936890,67.039139 979.454834,77.351883   C975.670959,77.248329 972.336731,77.087990 969.002563,76.927650  z"/>
<path fill="#419CC5" opacity="1.000000" stroke="none" d=" M999.786560,48.311443   C1000.076294,57.545475 1000.079529,66.605309 999.960388,75.663536   C999.934814,77.610924 999.467041,79.552498 998.688110,81.815918   C995.450012,81.041954 992.726868,79.948837 990.002930,78.396103   C990.025269,67.538391 990.048279,57.140297 990.071289,46.742199   C993.199646,47.207024 996.327942,47.671844 999.786560,48.311443  z"/>
<path fill="#4797C0" opacity="1.000000" stroke="none" d=" M989.736084,46.538322   C990.048279,57.140297 990.025269,67.538391 989.604858,78.414780   C986.106445,78.360405 983.005493,77.827751 979.904541,77.295090   C979.936890,67.039139 979.969238,56.783176 980.001526,46.102997   C983.134583,45.897331 986.267700,46.115887 989.736084,46.538322  z"/>
<path fill="#4797C0" opacity="1.000000" stroke="none" d=" M981.386841,158.922699   C980.840881,159.006088 980.677307,158.937729 980.263306,158.329376   C980.007385,147.496216 980.001892,137.203049 980.366211,126.756805   C983.480408,126.259254 986.224792,125.914780 988.975098,126.065880   C988.989319,136.954636 988.997559,147.347809 989.005859,157.740997   C986.593628,158.084320 984.181458,158.427643 981.386841,158.922699  z"/>
<path fill="#419CC5" opacity="1.000000" stroke="none" d=" M989.395752,157.774521   C988.997559,147.347809 988.989319,136.954636 989.266357,125.882217   C992.024780,124.429985 994.497925,123.656990 996.971008,122.883995   C997.252563,133.636749 997.534119,144.389511 997.905396,155.547150   C995.258606,156.570694 992.522095,157.189362 989.395752,157.774521  z"/>
<path fill="#A5333F" opacity="1.000000" stroke="none" d=" M25.664394,9.894712   C30.695623,9.704335 35.383900,9.822218 40.533768,10.471526   C40.996914,56.651554 41.017242,102.300179 40.956726,147.948700   C40.952797,150.911301 40.327225,153.873093 39.990822,156.835251   C37.952072,156.908432 35.913322,156.981598 33.440605,157.110779   C24.648720,156.710037 24.673964,156.709900 24.624956,148.072845   C24.597956,143.314346 24.469324,138.556427 24.300463,133.392853   C24.365736,130.011703 24.651007,127.035797 24.647182,124.060265   C24.616665,100.307045 24.531391,76.553909 24.346348,52.409428   C24.366293,40.035728 24.475243,28.052902 24.666859,16.071398   C24.698191,14.112268 25.094059,12.158968 25.664394,9.894712  z"/>
<path fill="#9D2B37" opacity="1.000000" stroke="none" d=" M40.453819,156.897446   C40.327225,153.873093 40.952797,150.911301 40.956726,147.948700   C41.017242,102.300179 40.996914,56.651554 40.995430,10.539760   C45.354656,10.028169 49.713810,9.979771 54.575645,10.407080   C55.386753,14.013379 55.959175,17.143591 55.963684,20.274618   C56.023514,61.836456 56.031273,103.398460 55.959007,144.960266   C55.952122,148.919968 55.320652,152.878571 54.979141,156.837692   C50.291702,156.878342 45.604259,156.918991 40.453819,156.897446  z"/>
<path fill="#922530" opacity="1.000000" stroke="none" d=" M55.395576,156.897583   C55.320652,152.878571 55.952122,148.919968 55.959007,144.960266   C56.031273,103.398460 56.023514,61.836456 55.963684,20.274618   C55.959175,17.143591 55.386753,14.013379 55.036758,10.467909   C61.618958,9.592853 61.618958,9.592853 61.838730,17.036539   C61.833378,41.415298 61.833378,64.899841 61.833378,89.335876   C65.070457,87.770699 67.241714,86.720863 69.697182,86.015106   C70.321228,92.565529 70.665260,98.771645 70.999771,104.978271   C71.361694,111.693443 71.714729,118.409096 72.071640,125.124535   C62.023022,128.927490 60.607166,136.803024 61.667240,146.230988   C62.055607,149.684982 61.080437,153.292297 60.368149,157.006134   C58.610016,157.107574 57.211014,157.032532 55.395576,156.897583  z"/>
<path fill="#B93445" opacity="1.000000" stroke="none" d=" M537.088928,77.241974   C524.049622,79.714073 511.021423,82.249359 497.952698,84.554604   C496.727844,84.770660 494.519867,83.913155 493.999542,82.913368   C489.713837,74.678001 485.719238,66.291115 481.283905,57.230000   C499.471100,51.030670 517.418518,46.745567 536.545288,46.248016   C537.030273,56.940029 537.059570,67.091003 537.088928,77.241974  z"/>
<path fill="#C82B50" opacity="1.000000" stroke="none" d=" M804.451172,156.905579   C803.997620,120.548759 803.997803,84.261551 803.997131,47.508514   C807.362305,46.987637 810.728210,46.932583 814.546997,47.423470   C814.999146,84.260086 814.998413,120.550766 814.997681,156.841446   C811.633423,156.886017 808.269165,156.930603 804.451172,156.905579  z"/>
<path fill="#B03D4C" opacity="1.000000" stroke="none" d=" M537.549133,77.297501   C537.059570,67.091003 537.030273,56.940029 537.001465,46.308033   C549.065002,46.191631 561.127991,46.556248 573.594360,47.030777   C573.997131,55.734837 574.051392,64.329597 573.954224,72.922653   C573.932251,74.868782 573.384521,76.808952 572.900635,79.178810   C561.151489,78.854851 549.580383,78.103943 537.549133,77.297501  z"/>
<path fill="#D41E33" opacity="1.000000" stroke="none" d=" M382.003571,78.115669   C381.666656,68.531754 381.329742,58.947834 380.946228,48.906166   C393.176208,45.348289 405.582214,43.946716 418.612671,45.752720   C418.730072,56.635933 418.456116,67.371529 417.682922,78.521233   C405.457001,78.662117 393.730286,78.388893 382.003571,78.115669  z"/>
<path fill="#B63848" opacity="1.000000" stroke="none" d=" M518.992188,112.861038   C518.993469,103.958275 518.994690,95.055527 518.996216,85.700592   C530.017395,84.916924 541.038330,84.585449 552.520874,84.795456   C552.984558,93.753220 552.986694,102.169502 552.524902,110.646881   C541.038086,111.425659 530.015137,112.143349 518.992188,112.861038  z"/>
<path fill="#71739B" opacity="1.000000" stroke="none" d=" M931.870667,153.472824   C929.406616,152.490540 926.942505,151.508255 924.236938,149.803650   C923.996826,120.671204 924.034241,92.260948 923.948242,63.851067   C923.938843,60.735092 923.221252,57.621269 922.832153,54.506439   C925.617188,53.279835 928.402161,52.053234 931.569214,51.261589   C931.968628,61.985966 931.875549,72.277855 932.104919,82.562546   C932.146362,84.422539 933.510254,86.253052 934.217773,88.494995   C930.901306,97.910255 931.358582,106.921631 933.978027,116.276840   C933.493408,121.034874 933.225037,125.444084 933.004639,129.855698   C932.611389,137.727310 932.247131,145.600372 931.870667,153.472824  z"/>
<path fill="#776E95" opacity="1.000000" stroke="none" d=" M922.485229,54.606216   C923.221252,57.621269 923.938843,60.735092 923.948242,63.851067   C924.034241,92.260948 923.996826,120.671204 923.993713,149.551392   C920.788940,148.192108 917.585999,146.362778 914.285645,143.844940   C914.458435,140.858292 914.957336,138.560745 914.963257,136.261932   C915.021912,113.506996 915.030029,90.751740 914.956848,67.996887   C914.948425,65.370705 914.359619,62.746380 914.039856,60.121185   C916.739319,58.316113 919.438843,56.511051 922.485229,54.606216  z"/>
<path fill="#7E688F" opacity="1.000000" stroke="none" d=" M913.726440,60.232414   C914.359619,62.746380 914.948425,65.370705 914.956848,67.996887   C915.030029,90.751740 915.021912,113.506996 914.963257,136.261932   C914.957336,138.560745 914.458435,140.858292 914.100037,143.562500   C910.690918,140.669937 907.370117,137.371277 904.047913,133.324905   C904.363281,130.125717 904.941162,127.675629 904.954285,125.222534   C905.037720,109.649696 905.048035,94.075851 904.945740,78.503227   C904.928650,75.890625 904.246033,73.282394 903.870911,70.672157   C907.051636,67.229324 910.232300,63.786472 913.726440,60.232414  z"/>
<path fill="#846187" opacity="1.000000" stroke="none" d=" M903.598511,70.879539   C904.246033,73.282394 904.928650,75.890625 904.945740,78.503227   C905.048035,94.075851 905.037720,109.649696 904.954285,125.222534   C904.941162,127.675629 904.363281,130.125717 903.942505,133.016891   C893.555603,118.957771 893.228577,102.910286 896.547119,86.314392   C897.017639,83.961708 898.607788,81.347511 894.263000,79.922363   C893.973511,68.879921 893.987244,58.533695 894.001038,48.187466   C895.586548,48.546059 897.172119,48.904659 898.991821,49.316231   C898.991821,58.472855 898.991821,67.397797 898.991821,77.685089   C900.902954,74.775833 902.114563,72.931381 903.598511,70.879539  z"/>
<path fill="#AB3E4C" opacity="1.000000" stroke="none" d=" M552.988770,110.585785   C552.986694,102.169502 552.984558,93.753220 552.978271,84.898827   C560.395691,85.593498 567.817200,86.726273 575.620605,87.928513   C576.002014,96.264435 576.001648,104.530899 575.606628,113.255661   C567.804260,112.671242 560.396484,111.628510 552.988770,110.585785  z"/>
<path fill="#E0061F" opacity="1.000000" stroke="none" d=" M260.602295,45.955330   C261.006348,55.700779 261.006683,65.323296 260.584625,75.451950   C253.780487,75.559723 247.398758,75.161369 241.016602,74.309219   C241.346725,64.263916 241.677261,54.672421 242.007797,45.080921   C248.071396,45.331417 254.134979,45.581909 260.602295,45.955330  z"/>
<path fill="#BF3055" opacity="1.000000" stroke="none" d=" M815.435852,156.903076   C814.998413,120.550766 814.999146,84.260086 814.999390,47.503216   C816.103699,47.963894 817.975769,48.759163 818.161743,49.843632   C818.622803,52.531540 818.313293,55.351616 818.313293,58.917484   C820.831726,57.484455 822.600525,56.477970 824.684448,55.836182   C825.331482,66.796852 825.663330,77.392822 825.995178,87.988792   C819.316345,91.030388 817.954651,96.305595 818.170776,103.309418   C818.672668,119.577530 818.366821,135.872284 818.250488,152.155258   C818.237915,153.922577 819.636658,156.858994 815.435852,156.903076  z"/>
<path fill="#E80E2F" opacity="1.000000" stroke="none" d=" M737.782593,48.526695   C737.664612,61.658699 737.264648,74.549385 736.541748,87.737244   C732.483337,82.761047 726.858582,80.603348 721.106750,78.417679   C721.480713,67.297562 721.759277,56.572292 722.037842,45.847019   C727.192078,46.659805 732.346375,47.472591 737.782593,48.526695  z"/>
<path fill="#C6071C" opacity="1.000000" stroke="none" d=" M211.133591,84.316193   C210.423019,81.667625 209.182999,79.035553 209.099915,76.367447   C208.837875,67.952301 209.009628,59.523647 209.015503,50.643993   C214.419662,48.913372 219.821838,47.638973 225.619812,46.830307   C226.345108,56.836971 226.674591,66.377907 226.662796,76.075508   C220.607391,77.702896 214.846436,79.085602 211.133591,84.316193  z"/>
<path fill="#E01533" opacity="1.000000" stroke="none" d=" M721.661743,45.676071   C721.759277,56.572292 721.480713,67.297562 720.699829,78.423294   C715.466919,78.200279 710.736328,77.576797 706.004822,76.487595   C706.005798,65.779030 706.007690,55.536198 706.009583,45.293362   C711.101562,45.363949 716.193604,45.434536 721.661743,45.676071  z"/>
<path fill="#DA1A37" opacity="1.000000" stroke="none" d=" M705.593018,45.245667   C706.007690,55.536198 706.005798,65.779030 705.544861,76.567993   C700.448730,77.292007 695.811646,77.469910 691.143677,77.139313   C691.077576,66.792580 691.042297,56.954338 691.007080,47.116096   C695.730164,46.476719 700.453308,45.837341 705.593018,45.245667  z"/>
<path fill="#6180A8" opacity="1.000000" stroke="none" d=" M955.558838,45.893036   C955.999084,56.271149 956.002808,66.578972 955.606812,77.443817   C951.623413,78.745369 948.039673,79.489906 944.156006,79.952148   C943.238770,77.355743 942.151123,75.054131 942.089294,72.725281   C941.870972,64.500923 942.003906,56.267239 942.003601,48.037083   C946.376526,47.298965 950.749451,46.560856 955.558838,45.893036  z"/>
<path fill="#D1071D" opacity="1.000000" stroke="none" d=" M227.004089,75.918839   C226.674591,66.377907 226.345108,56.836971 226.016235,46.854950   C231.050476,45.914963 236.084091,45.416065 241.562759,44.999046   C241.677261,54.672421 241.346725,64.263916 240.569946,74.392471   C235.750504,75.259300 231.377304,75.589073 227.004089,75.918839  z"/>
<path fill="#CA273F" opacity="1.000000" stroke="none" d=" M664.925659,94.997749   C664.291687,93.752388 663.122864,92.513504 663.107666,91.260643   C662.976990,80.481506 663.040222,69.699776 663.099915,58.919109   C663.104248,58.129395 663.533142,57.342033 664.004517,56.197922   C667.926147,54.281849 671.608032,52.721436 675.647827,51.565147   C676.337219,61.573891 676.668701,71.178505 676.713379,80.986801   C670.682251,84.201485 666.062866,88.149361 664.925659,94.997749  z"/>
<path fill="#D1213B" opacity="1.000000" stroke="none" d=" M677.000244,80.783127   C676.668701,71.178505 676.337219,61.573891 676.006592,51.543869   C680.743408,49.758343 685.479431,48.398224 690.611206,47.077103   C691.042297,56.954338 691.077576,66.792580 690.776001,77.256538   C685.959534,78.849213 681.479919,79.816170 677.000244,80.783127  z"/>
<path fill="#AE3F65" opacity="1.000000" stroke="none" d=" M850.991821,78.794403   C846.937683,79.904106 842.883484,81.013809 838.347412,81.727974   C837.575684,70.903313 837.285889,60.474190 836.996094,50.045067   C841.046936,48.979828 845.097717,47.914593 849.567261,47.351402   C850.321228,58.167103 850.656555,68.480759 850.991821,78.794403  z"/>
<path fill="#B8375D" opacity="1.000000" stroke="none" d=" M836.623901,50.051430   C837.285889,60.474190 837.575684,70.903313 837.958313,81.752151   C834.264343,84.069565 830.477600,85.967262 826.343018,87.926880   C825.663330,77.392822 825.331482,66.796852 825.000610,55.752323   C828.751587,53.555107 832.501709,51.806450 836.623901,50.051430  z"/>
<path fill="#A4476C" opacity="1.000000" stroke="none" d=" M851.396912,78.791107   C850.656555,68.480759 850.321228,58.167103 849.980957,47.378365   C853.704346,46.311672 857.432739,45.720074 861.580078,45.619007   C862.013977,56.448780 862.028992,66.788025 862.044006,77.127266   C858.630005,77.680779 855.216003,78.234291 851.396912,78.791107  z"/>
<path fill="#6A79A0" opacity="1.000000" stroke="none" d=" M941.610474,47.996075   C942.003906,56.267239 941.870972,64.500923 942.089294,72.725281   C942.151123,75.054131 943.238770,77.355743 943.897461,80.190140   C940.713867,83.172691 937.488708,85.634956 934.263550,88.097198   C933.510254,86.253052 932.146362,84.422539 932.104919,82.562546   C931.875549,72.277855 931.968628,61.985966 931.935425,51.209137   C935.018921,49.799511 938.118164,48.877285 941.610474,47.996075  z"/>
<path fill="#8D5B81" opacity="1.000000" stroke="none" d=" M893.622620,48.060112   C893.987244,58.533695 893.973511,68.879921 893.946533,79.707214   C890.524475,79.561470 887.115662,78.934669 883.353455,77.682877   C883.000305,66.746712 883.000549,56.435535 883.000854,46.124359   C886.415283,46.727154 889.829773,47.329952 893.622620,48.060112  z"/>
<path fill="#9D4E74" opacity="1.000000" stroke="none" d=" M862.496521,77.184074   C862.028992,66.788025 862.013977,56.448780 861.998169,45.654045   C865.364563,45.118816 868.731750,45.039082 872.549866,45.507309   C872.999634,56.372532 872.998596,66.689789 872.997559,77.007050   C869.648071,77.084991 866.298523,77.162941 862.496521,77.184074  z"/>
<path fill="#95547B" opacity="1.000000" stroke="none" d=" M873.395752,77.107895   C872.998596,66.689789 872.999634,56.372532 873.001221,45.595627   C876.060974,45.405327 879.120300,45.674671 882.590210,46.034187   C883.000549,56.435535 883.000305,66.746712 883.000000,77.526169   C879.931274,77.732552 876.862610,77.470650 873.395752,77.107895  z"/>
<path fill="#02010100" opacity="1.000000" stroke="none" d=" M473.379150,120.354500   C472.619629,119.542702 471.882233,118.524574 471.967896,117.581215   C472.417206,112.634445 473.074890,107.706596 473.768433,102.384048   C475.513672,102.525681 477.150665,103.055443 478.956787,103.924934   C477.344299,109.570663 475.562653,114.876663 473.379150,120.354500  z"/>
<path fill="#6081A9" opacity="1.000000" stroke="none" d=" M959.003601,158.651642   C954.272461,158.079666 949.541321,157.507690 944.410034,156.368011   C944.031799,145.117096 944.053711,134.433853 944.470520,123.796333   C949.259644,124.832237 953.653870,125.822426 958.038635,127.292931   C958.353943,138.066040 958.678772,148.358841 959.003601,158.651642  z"/>
<path fill="#568BB3" opacity="1.000000" stroke="none" d=" M959.452637,158.764099   C958.678772,148.358841 958.353943,138.066040 958.495483,127.229774   C962.974426,126.818390 966.987000,126.950485 970.999390,127.546051   C970.999390,138.300568 970.999573,148.591614 970.999695,158.882645   C967.300354,158.880615 963.601013,158.878586 959.452637,158.764099  z"/>
<path fill="#6A79A0" opacity="1.000000" stroke="none" d=" M944.075562,123.750626   C944.053711,134.433853 944.031799,145.117096 944.011230,156.249451   C940.163208,155.747955 936.313904,154.797333 932.167603,153.659760   C932.247131,145.600372 932.611389,137.727310 933.004639,129.855698   C933.225037,125.444084 933.493408,121.034874 934.269409,116.438400   C937.890991,118.751694 940.983276,121.251160 944.075562,123.750626  z"/>
<path fill="#4E90B8" opacity="1.000000" stroke="none" d=" M971.446533,158.955139   C970.999573,148.591614 970.999390,138.300568 971.443665,127.466568   C974.590881,126.919029 977.293701,126.914459 979.996460,126.909889   C980.001892,137.203049 980.007385,147.496216 980.013672,158.237762   C977.307434,158.799973 974.600342,158.913788 971.446533,158.955139  z"/>
<path fill="#7C0A14" opacity="1.000000" stroke="none" d=" M109.883217,60.760494   C116.382835,56.650852 122.882446,52.541214 129.697876,48.778130   C130.009903,59.349411 129.868622,69.577278 130.102081,79.796585   C130.158234,82.254433 131.457550,84.683876 132.185135,87.126381   C129.576065,88.986435 126.967010,90.846481 123.793587,93.108871   C127.349998,96.453773 130.518967,99.434280 133.527802,102.890518   C132.912048,105.379990 132.083466,107.389641 132.061432,109.408112   C131.920288,122.331818 131.956299,135.257462 131.934052,148.182465   C127.782318,144.569260 123.630585,140.956055 119.177864,137.185699   C115.645836,133.916031 112.414780,130.803513 109.269516,127.118988   C109.902977,124.178734 110.906769,121.814056 110.925377,119.441650   C111.060951,102.154610 111.039230,84.865814 110.949013,67.578186   C110.937141,65.303833 110.254951,63.032970 109.883217,60.760494  z"/>
<path fill="#880915" opacity="1.000000" stroke="none" d=" M132.114960,148.452835   C131.956299,135.257462 131.920288,122.331818 132.061432,109.408112   C132.083466,107.389641 132.912048,105.379990 133.705536,103.174156   C138.602600,107.064240 143.161774,111.146423 147.801239,115.927185   C147.587708,126.682411 147.106125,136.739059 147.105789,146.795715   C147.105682,150.141434 148.339996,153.487198 149.009964,156.832932   C141.131149,158.885315 136.942825,153.331665 132.114960,148.452835  z"/>
<path fill="#A10818" opacity="1.000000" stroke="none" d=" M179.734299,70.219971   C180.340714,86.400581 180.752884,102.771927 180.943909,119.145851   C180.995667,123.581253 180.378693,128.024445 179.959259,132.894684   C172.909195,125.043877 170.726685,115.070053 170.272720,104.709503   C169.733322,92.399025 171.979721,80.660095 179.734299,70.219971  z"/>
<path fill="#930816" opacity="1.000000" stroke="none" d=" M149.471924,156.882477   C148.339996,153.487198 147.105682,150.141434 147.105789,146.795715   C147.106125,136.739059 147.587708,126.682411 147.978683,116.200882   C152.648422,119.886421 157.220993,123.996849 161.959930,128.381256   C160.586319,137.849213 159.712204,147.027115 162.902679,156.465958   C158.655258,156.858887 154.294571,156.895447 149.471924,156.882477  z"/>
<path fill="#850914" opacity="1.000000" stroke="none" d=" M132.472458,86.945175   C131.457550,84.683876 130.158234,82.254433 130.102081,79.796585   C129.868622,69.577278 130.009903,59.349411 130.017563,48.673496   C133.386078,47.785435 136.750702,47.348564 140.558777,47.438961   C141.002396,56.600620 140.863907,65.238838 141.102402,73.866646   C141.160431,75.965668 142.457977,78.030426 143.185593,80.110939   C139.710327,82.328621 136.235046,84.546295 132.472458,86.945175  z"/>
<path fill="#8E0815" opacity="1.000000" stroke="none" d=" M143.475586,79.933357   C142.457977,78.030426 141.160431,75.965668 141.102402,73.866646   C140.863907,65.238838 141.002396,56.600620 141.002899,47.500336   C143.049683,46.931637 145.095779,46.828831 147.573761,46.644928   C149.721130,46.670418 151.436584,46.777008 153.576508,47.418877   C154.034256,56.420933 154.067520,64.887711 154.100769,73.354485   C150.655701,75.488251 147.210632,77.622017 143.475586,79.933357  z"/>
<path fill="#A10818" opacity="1.000000" stroke="none" d=" M166.002457,47.028282   C175.543274,47.028282 185.084091,47.028282 194.624908,47.028282   C194.736313,47.337894 194.847717,47.647511 194.959122,47.957123   C185.871155,53.606918 176.783173,59.256718 167.269104,64.588516   C166.562820,58.523109 166.282639,52.775696 166.002457,47.028282  z"/>
<path fill="#980817" opacity="1.000000" stroke="none" d=" M165.546158,46.956581   C166.282639,52.775696 166.562820,58.523109 166.933014,64.685669   C162.936493,67.761459 158.849960,70.422096 154.432098,73.218613   C154.067520,64.887711 154.034256,56.420933 154.001572,47.487038   C157.698059,46.974903 161.393951,46.929890 165.546158,46.956581  z"/>
<path fill="#81111C" opacity="1.000000" stroke="none" d=" M109.548981,60.873154   C110.254951,63.032970 110.937141,65.303833 110.949013,67.578186   C111.039230,84.865814 111.060951,102.154610 110.925377,119.441650   C110.906769,121.814056 109.902977,124.178734 109.081985,126.841187   C104.576767,123.340446 100.344864,119.545517 96.245193,115.212608   C96.915596,112.993156 97.829613,111.331200 97.918221,109.626350   C98.142807,105.305267 98.107040,100.961632 97.977043,96.632996   C97.697807,87.334946 97.293564,78.040649 97.119324,68.515610   C98.206841,67.554237 99.115547,66.822075 100.024254,66.089912   C103.087746,64.388542 106.151237,62.687180 109.548981,60.873154  z"/>
<path fill="#8E1E29" opacity="1.000000" stroke="none" d=" M72.407455,125.029472   C71.714729,118.409096 71.361694,111.693443 70.999771,104.978271   C70.665260,98.771645 70.321228,92.565529 69.958908,85.775436   C74.603943,82.365387 79.271454,79.539093 84.090820,77.120171   C84.494926,79.818741 84.943878,82.108040 84.965965,84.401451   C85.071297,95.340874 85.060684,106.281418 85.091316,117.221558   C80.975296,119.792503 76.859283,122.363457 72.407455,125.029472  z"/>
<path fill="#871722" opacity="1.000000" stroke="none" d=" M85.437912,117.117935   C85.060684,106.281418 85.071297,95.340874 84.965965,84.401451   C84.943878,82.108040 84.494926,79.818741 84.308899,76.880493   C88.563576,73.737228 92.752037,71.241020 96.940506,68.744812   C97.293564,78.040649 97.697807,87.334946 97.977043,96.632996   C98.107040,100.961632 98.142807,105.305267 97.918221,109.626350   C97.829613,111.331200 96.915596,112.993156 96.057411,114.934372   C91.735832,112.061127 88.980034,115.739922 85.437912,117.117935  z"/>
<path fill="#07040400" opacity="1.000000" stroke="none" d=" M262.294434,125.676651   C256.960541,126.238892 251.933212,126.602486 246.456909,127.037109   C240.284256,126.743393 234.560577,126.378632 228.421051,126.037720   C222.405106,124.098145 216.085388,123.679123 211.667374,118.349335   C210.361816,115.774696 207.490631,112.796326 214.084015,112.755432   C219.636246,112.687462 224.328232,112.635803 229.480667,112.658310   C234.971664,112.681725 240.002213,112.630997 245.491745,112.657501   C250.977890,112.682198 256.005066,112.629646 261.032227,112.577095   C267.638123,112.577095 274.244049,112.577095 282.083405,112.577095   C276.895325,120.378242 270.112396,123.465576 262.294434,125.676651  z"/>
<path fill="#07060700" opacity="1.000000" stroke="none" d=" M226.662796,76.075508   C231.377304,75.589073 235.750504,75.259300 240.570374,74.846275   C247.398758,75.161369 253.780487,75.559723 260.586365,75.912231   C267.282349,77.644417 274.084351,78.500397 278.526825,86.517410   C271.985016,86.517410 266.472412,86.517410 260.056519,86.503204   C254.123108,86.577400 249.092972,86.665794 243.608917,86.622757   C238.441681,86.574654 233.728378,86.657997 228.565247,86.612656   C223.416779,86.559082 218.718124,86.634178 214.019485,86.709274   C213.102997,86.137558 212.186493,85.565834 211.201797,84.655151   C214.846436,79.085602 220.607391,77.702896 226.662796,76.075508  z"/>
<path fill="#E0061F" opacity="1.000000" stroke="none" d=" M244.062866,86.754196   C249.092972,86.665794 254.123108,86.577400 259.607452,86.622528   C260.373932,95.107651 260.686188,103.459251 261.015320,112.193970   C256.005066,112.629646 250.977890,112.682198 245.488068,112.216293   C244.704559,103.383286 244.383713,95.068741 244.062866,86.754196  z"/>
<path fill="#06040400" opacity="1.000000" stroke="none" d=" M552.524902,110.646881   C560.396484,111.628510 567.804260,112.671242 575.607056,113.705299   C576.156799,113.747124 576.318604,113.782227 576.464905,113.850433   C578.841125,114.957825 581.215332,116.069420 583.590027,117.180069   C581.237549,118.618454 578.885071,120.056831 576.258911,121.715561   C567.255920,123.933350 558.526611,125.930794 549.397278,128.028442   C538.715820,128.215652 528.434387,128.302643 517.698242,128.353668   C513.845398,127.186783 511.364105,125.281517 511.458466,121.294533   C511.566589,116.723808 514.777527,114.797592 518.699097,113.054657   C530.015137,112.143349 541.038086,111.425659 552.524902,110.646881  z"/>
<path fill="#06040400" opacity="1.000000" stroke="none" d=" M676.713379,80.986801   C681.479919,79.816170 685.959534,78.849213 690.806885,77.765030   C695.811646,77.469910 700.448730,77.292007 705.545776,77.033722   C710.736328,77.576797 715.466919,78.200279 720.604431,78.818138   C726.858582,80.603348 732.483337,82.761047 736.500854,88.231308   C740.687927,97.327179 741.221924,106.236931 736.750916,115.521027   C733.287109,118.487221 729.940918,121.094711 726.297180,123.875153   C720.600891,124.972176 715.202209,125.896240 709.401245,126.926208   C703.009277,126.856071 697.019531,126.680031 690.567871,126.532440   C682.281128,124.953697 674.290649,123.720345 668.412476,116.884674   C664.393799,110.149269 664.114014,103.083946 664.950806,95.421852   C666.062866,88.149361 670.682251,84.201485 676.713379,80.986801  z"/>
<path fill="#06040400" opacity="1.000000" stroke="none" d=" M381.683228,78.316269   C393.730286,78.388893 405.457001,78.662117 417.589050,78.922836   C425.078552,81.249428 432.051422,84.114403 434.501770,91.911232   C438.376068,104.239052 436.822937,118.733276 421.330627,124.174896   C412.330963,125.239105 403.626495,126.081329 394.460693,127.001907   C387.240173,125.818016 380.480957,124.555763 373.357330,123.238007   C359.384674,115.956795 360.339294,108.899582 361.401215,96.262550   C362.199036,86.767944 369.452026,80.971146 381.683228,78.316269  z"/>
<path fill="#C6071C" opacity="1.000000" stroke="none" d=" M214.014175,87.129715   C218.718124,86.634178 223.416779,86.559082 228.562317,87.031097   C229.012878,95.913521 229.016556,104.248833 229.020233,112.584152   C224.328232,112.635803 219.636246,112.687462 214.484161,112.668381   C214.018997,104.248482 214.013931,95.899323 214.014175,87.129715  z"/>
<path fill="#100F1000" opacity="1.000000" stroke="none" d=" M97.119324,68.515610   C92.752037,71.241020 88.563576,73.737228 84.157028,76.473114   C79.271454,79.539093 74.603943,82.365387 69.674713,85.431351   C67.241714,86.720863 65.070457,87.770699 61.833378,89.335876   C61.833378,64.899841 61.833378,41.415298 61.901516,17.466215   C70.919617,19.383362 77.667923,25.052101 82.239403,32.666737   C88.608597,43.275791 94.023232,54.457920 99.935333,65.742348   C99.115547,66.822075 98.206841,67.554237 97.119324,68.515610  z"/>
<path fill="#05050600" opacity="1.000000" stroke="none" d=" M980.366272,126.756805   C977.293701,126.914459 974.590881,126.919029 971.443848,127.003090   C966.987000,126.950485 962.974426,126.818390 958.504944,126.749458   C953.653870,125.822426 949.259644,124.832237 944.470459,123.796341   C940.983276,121.251160 937.890991,118.751694 934.507385,116.090668   C931.358582,106.921631 930.901306,97.910255 934.217773,88.495018   C937.488708,85.634956 940.713867,83.172691 944.197510,80.472427   C948.039673,79.489906 951.623413,78.745369 955.607422,77.899864   C960.041931,77.566574 964.076111,77.334251 968.556396,77.014786   C972.336731,77.087990 975.670959,77.248329 979.454834,77.351875   C983.005493,77.827751 986.106445,78.360405 989.605530,78.874390   C992.726868,79.948837 995.450012,81.041954 998.527466,82.222466   C1003.626648,86.189636 1006.519043,91.076721 1007.165771,97.639053   C1007.273010,100.704903 1007.228882,103.398842 1007.201843,106.542023   C1005.816772,113.315666 1003.525146,119.070824 997.176880,122.622849   C994.497925,123.656990 992.024780,124.429985 989.260376,125.386642   C986.224792,125.914780 983.480408,126.259254 980.366272,126.756805  z"/>
<path fill="#D3071D" opacity="1.000000" stroke="none" d=" M229.480667,112.658310   C229.016556,104.248833 229.012878,95.913521 229.012146,87.159767   C233.728378,86.657997 238.441681,86.574654 243.608917,86.622749   C244.383713,95.068741 244.704559,103.383286 245.029099,112.139053   C240.002213,112.630997 234.971664,112.681725 229.480667,112.658310  z"/>
</svg>